<svg width="1029" height="315" viewBox="0 0 1029 315" fill="none" xmlns="http://www.w3.org/2000/svg">
<g clip-path="url(#clip0)">
<path d="M540.363 268.045C546.639 252.556 564.283 245.088 579.772 251.364C595.261 257.64 602.729 275.284 596.453 290.773C590.177 306.262 572.533 313.73 557.044 307.454C541.555 301.178 534.086 283.534 540.363 268.045Z" fill="#73B61E"/>
<path fill-rule="evenodd" clip-rule="evenodd" d="M555.112 288.118C556.503 289.439 558.119 290.6 559.928 291.539C558.837 288.64 558.759 285.482 559.944 282.559C562.697 275.765 571.222 272.808 578.987 275.954C582.083 277.209 584.591 279.245 586.312 281.67C587.835 273.911 582.836 265.503 574.138 261.978C564.443 258.05 553.824 261.677 550.419 270.079C548.694 274.337 549.152 279.003 551.286 283.083C549.76 284.943 546.372 286.684 543.305 287.632C546.382 288.878 550.422 290.515 555.112 288.118ZM570.044 298.047C571.636 298.692 573.269 299.003 574.848 299.014C575.928 302.005 578.405 303.009 580.295 303.774C579.335 302.063 578.569 299.873 578.676 298.418C581.382 297.516 583.602 295.625 584.677 292.972C586.792 287.752 583.67 281.561 577.704 279.144C571.738 276.726 565.187 278.998 563.072 284.218C560.957 289.438 564.079 295.63 570.044 298.047Z" fill="white"/>
<path d="M898.149 147.707C891.992 120.972 908.673 94.3067 935.408 88.1492C962.143 81.9917 988.808 98.6731 994.966 125.408C1001.12 152.143 984.442 178.808 957.707 184.966C930.972 191.123 904.307 174.442 898.149 147.707Z" fill="#FF0000"/>
<path fill-rule="evenodd" clip-rule="evenodd" d="M954.631 101.663C959.253 102.624 962.221 107.151 961.26 111.773C960.298 116.395 955.772 119.363 951.149 118.402C946.527 117.44 943.559 112.914 944.521 108.291C945.482 103.669 950.009 100.701 954.631 101.663ZM974.277 115.601C975.899 114.382 978.114 114.823 979.333 116.445C980.452 118.09 980.134 120.382 978.759 121.756C978.126 122.219 972.227 126.431 968.428 127.834C967.548 128.143 966.467 128.497 965.162 128.798C962.854 129.329 959.751 129.621 956.207 129.381C953.944 132.861 952.251 139.275 951.237 144.053L976.544 138.753C978.853 138.222 981.098 139.712 981.63 142.021C982.162 144.329 980.771 146.552 978.463 147.083L978.363 147.106L942.873 154.541C942.299 159.851 940.869 165.571 937.718 167.036C937.579 167.068 937.444 167.122 937.299 167.18C937.133 167.246 936.953 167.318 936.738 167.368C935.032 167.761 931.064 167.512 918.128 163.199C915.843 162.457 914.663 160.086 915.405 157.802C916.147 155.517 918.518 154.337 920.802 155.079C925.148 156.509 930.466 158.032 933.353 158.635C934.111 155.502 934.963 148.647 934.462 146.015C933.838 143.305 935.362 135.238 937.41 129.905C935.796 130.7 934.005 131.641 932.26 132.782C931.418 133.716 929.479 137.228 927.841 140.67C927.323 141.635 926.335 142.391 925.331 142.622C924.528 142.807 923.757 142.667 922.938 142.327C921.055 141.493 920.323 139.231 921.181 137.448C925.542 128.308 927.224 127.196 927.972 126.702C927.982 126.695 927.992 126.688 928.001 126.682C933.816 123.018 941.985 119.023 948.307 120.315C948.654 120.446 951.788 121.204 954.204 121.599C959.607 122.573 963.699 121.525 965.637 120.762C968.154 119.76 972.733 116.697 974.277 115.601Z" fill="white"/>
<path d="M449.012 267.786C446.244 255.767 453.743 243.78 465.762 241.012C477.781 238.244 489.768 245.743 492.536 257.762C495.304 269.781 487.805 281.768 475.786 284.536C463.767 287.304 451.78 279.805 449.012 267.786Z" fill="#FF445A"/>
<path d="M473.693 275.468C467.114 276.984 461.584 272.641 460.355 267.307C459.127 261.973 462.124 257.632 463.143 256.274C463.143 256.274 463.819 259.207 465.391 260.249C468.443 257.3 469.737 252.508 468.187 248.091C476.898 250.297 480.888 256.961 482.117 262.295C483.345 267.628 480.272 273.953 473.693 275.468Z" fill="white"/>
<path d="M115.552 305.378C110.276 283.135 124.031 260.827 146.274 255.552C168.517 250.277 190.825 264.032 196.1 286.275C201.376 308.517 187.621 330.825 165.378 336.101C143.135 341.376 120.827 327.621 115.552 305.378Z" fill="#8218D4"/>
<path fill-rule="evenodd" clip-rule="evenodd" d="M136.829 275.517C134.975 275.956 133.829 277.815 134.269 279.669L144.616 323.299C145.056 325.153 146.915 326.299 148.768 325.86C150.622 325.42 151.768 323.561 151.329 321.708L147.349 304.927L180.912 296.967L169.4 287.29L175.34 273.473L141.777 281.433L140.981 278.077C140.541 276.223 138.682 275.077 136.829 275.517Z" fill="white"/>
<path d="M851.457 249.657C857.782 231.268 877.817 221.489 896.206 227.814C914.595 234.14 924.374 254.175 918.048 272.564C911.722 290.952 891.687 300.731 873.299 294.406C854.91 288.08 845.131 268.045 851.457 249.657Z" fill="#7E1C69"/>
<path d="M892.385 238.913L893.487 251.227L905.844 250.814L897.916 260.301L906.946 268.746L894.632 269.849L895.045 282.205L885.558 274.278L877.113 283.307L876.01 270.993L863.654 271.407L871.582 261.919L862.552 253.474L874.866 252.372L874.452 240.015L883.94 247.943L892.385 238.913Z" fill="white"/>
<path d="M718.951 242.594C723.342 225.145 741.048 214.56 758.497 218.951C775.946 223.343 786.531 241.048 782.14 258.497C777.748 275.946 760.043 286.531 742.594 282.14C725.145 277.749 714.56 260.043 718.951 242.594Z" fill="#0B42D2"/>
<path fill-rule="evenodd" clip-rule="evenodd" d="M775.654 236.293C775.015 242.378 770.277 252.34 759.774 258.619C759.692 258.668 759.609 258.717 759.526 258.765L760.542 262.627L744.681 272.109L747.164 262.339C742.44 262.883 738.675 262.679 738.675 262.679L736.791 259.528L755.512 248.335C756.799 250.429 759.534 251.104 761.649 249.839C763.764 248.574 764.464 245.846 763.229 243.721L775.654 236.293ZM736.79 259.529L755.512 248.335C755.502 248.319 755.492 248.303 755.483 248.287C754.208 246.156 754.903 243.395 757.034 242.121C759.166 240.847 761.926 241.542 763.2 243.673C763.21 243.689 763.22 243.705 763.229 243.721L775.652 236.294C769.99 233.976 758.972 233.434 748.469 239.714C748.386 239.763 748.304 239.813 748.223 239.864L745.302 237.141L729.441 246.623L739.223 249.061C736.508 252.964 734.906 256.377 734.906 256.377L736.79 259.529ZM737.692 262.904C735.731 263.44 733.606 262.43 732.789 261.858L727.537 264.998C729.989 266.714 734.892 267.76 737.692 262.904ZM734.187 257.043C732.786 258.517 732.67 260.867 732.787 261.858L727.536 264.998C727.185 262.025 728.584 257.211 734.187 257.043Z" fill="white"/>
<path d="M113.411 207.928C110.975 197.929 117.106 187.848 127.105 185.411C137.104 182.975 147.186 189.106 149.622 199.105C152.058 209.104 145.927 219.186 135.928 221.622C125.929 224.058 115.848 217.927 113.411 207.928Z" fill="#934011"/>
<path fill-rule="evenodd" clip-rule="evenodd" d="M135.419 194.345C132.108 195.151 130.831 197.107 130.831 197.107L134.234 211.074C134.234 211.074 135.511 209.118 138.822 208.312C142.133 207.505 144.166 208.654 144.166 208.654L140.763 194.687C140.763 194.687 138.73 193.538 135.419 194.345ZM123.837 197.168C120.527 197.975 119.25 199.93 119.25 199.93L122.653 213.897C122.653 213.897 123.93 211.942 127.24 211.135C130.551 210.328 132.585 211.477 132.585 211.477L129.182 197.51C129.182 197.51 127.148 196.361 123.837 197.168Z" fill="white"/>
<path d="M258.494 192.093C256.012 183.751 260.762 174.977 269.104 172.494C277.446 170.012 286.22 174.762 288.703 183.104C291.185 191.446 286.435 200.22 278.093 202.703C269.751 205.185 260.977 200.435 258.494 192.093Z" fill="#FF445A"/>
<path fill-rule="evenodd" clip-rule="evenodd" d="M277.509 175.839L266.919 181.011L267.35 182.46L267.346 182.461L270.33 192.489C270.591 193.37 269.748 193.852 268.806 194.391C267.761 194.988 266.595 195.655 266.684 197.011C266.823 199.136 268.883 199.691 269.952 199.272C272.098 198.432 273.401 196.629 272.738 194.401L269.847 184.686L277.227 181.081L279.293 188.023C279.554 188.903 278.711 189.386 277.769 189.924C276.724 190.522 275.558 191.188 275.647 192.544C275.786 194.67 277.846 195.225 278.915 194.806C281.061 193.965 282.364 192.163 281.701 189.934L278.833 180.297L278.835 180.296L277.509 175.839Z" fill="white"/>
<path d="M652.647 269.427C654.799 262.938 661.804 259.421 668.293 261.573C674.782 263.725 678.298 270.73 676.146 277.219C673.994 283.709 666.989 287.225 660.5 285.073C654.011 282.921 650.495 275.916 652.647 269.427Z" fill="#FF6341"/>
<path fill-rule="evenodd" clip-rule="evenodd" d="M669.303 266.058C668.92 267.213 667.674 267.839 666.519 267.456C665.364 267.073 664.738 265.827 665.121 264.672C665.504 263.517 666.751 262.891 667.906 263.274C669.06 263.657 669.686 264.904 669.303 266.058ZM669.818 271.619C670.362 272.35 670.965 273.022 671.675 273.611C672.136 274 672.184 274.685 671.772 275.099C671.489 275.477 671.017 275.596 670.591 275.455C670.45 275.408 670.32 275.325 670.225 275.255C669.386 274.583 668.641 273.746 667.99 272.861C667.925 272.761 667.866 272.673 667.806 272.584C667.747 272.496 667.688 272.407 667.623 272.307C667.282 273.217 666.988 274.103 666.73 275L666.107 277.233L666.017 279.642C665.983 280.457 665.83 281.272 665.572 282.051L664.878 284.142C664.69 284.709 664.077 285.017 663.51 284.829C662.943 284.641 662.635 284.028 662.823 283.461L663.516 281.37C663.716 280.767 663.833 280.177 663.844 279.551L663.9 277.839L662.518 277.38L662.106 278.03C661.34 279.271 660.208 280.194 658.875 280.775L657.412 281.391C656.869 281.604 656.243 281.357 655.994 280.803C655.781 280.26 656.028 279.634 656.582 279.385L658.045 278.769C658.966 278.366 659.732 277.715 660.286 276.876L661.11 275.576L661.334 275.021C662.04 273.366 662.616 271.63 663.085 269.858C662.471 270.048 661.846 270.509 661.422 270.841C660.785 271.338 660.219 271.976 659.748 272.685C659.489 273.111 658.958 273.289 658.497 273.136C658.462 273.124 658.42 273.101 658.379 273.077C658.338 273.053 658.296 273.03 658.261 273.018C657.741 272.688 657.563 272.039 657.892 271.519C658.517 270.585 659.259 269.77 660.108 269.107C660.958 268.445 662.526 267.273 664.404 267.66C664.699 267.718 664.947 267.801 665.219 267.93L667.168 268.577L667.31 268.624L667.913 268.823C668.232 268.929 668.48 269.129 668.61 269.448C668.942 270.227 669.333 270.946 669.818 271.619Z" fill="white"/>
<path d="M300.255 302.45C294.621 277.017 310.672 251.833 336.104 246.2C361.537 240.567 386.721 256.617 392.354 282.05C397.987 307.482 381.937 332.666 356.504 338.299C331.072 343.933 305.888 327.882 300.255 302.45Z" fill="#7CA2BE"/>
<path fill-rule="evenodd" clip-rule="evenodd" d="M354.299 278.145C354.428 278.727 354.535 279.302 354.623 279.87C350.44 284.726 347.889 290.911 347.567 297.488C344.27 291.229 338.831 286.466 332.412 283.941C332.336 283.645 332.264 283.345 332.197 283.041C329.073 268.938 338.38 258.619 338.38 258.619C338.38 258.619 351.175 264.043 354.299 278.145ZM316.451 287.602L318.592 297.271C319.017 299.186 319.648 301.002 320.458 302.699L325.22 301.644C333.109 299.897 340.952 302.162 346.618 307.082L346.553 306.787C343.538 293.177 330.061 284.587 316.451 287.602ZM384.369 292.206L371.106 295.143C360.679 297.453 354.099 307.778 356.408 318.206L369.67 315.268C380.097 312.958 386.678 302.633 384.369 292.206ZM311.891 308.261L326.371 305.054C336.798 302.744 347.122 309.324 349.432 319.751L334.952 322.958C324.525 325.268 314.201 318.687 311.891 308.261ZM373.546 285.099L371.404 275.43C357.794 278.444 349.204 291.921 352.219 305.532L352.759 307.972C355.347 299.964 361.993 293.499 370.803 291.548L374.147 290.807C374.164 288.926 373.97 287.014 373.546 285.099Z" fill="white"/>
</g>
<defs>
<clipPath id="clip0">
<rect width="1029" height="315" fill="white"/>
</clipPath>
</defs>
</svg>
