<svg width="688" height="296" viewBox="0 0 688 296" fill="none" xmlns="http://www.w3.org/2000/svg">
<g opacity="0.4">
<path d="M0 5.62272C0 2.62975 2.61174 0.307263 5.58421 0.656965L131.584 15.4805C134.102 15.7767 136 17.9108 136 20.4462V261.554C136 264.089 134.102 266.223 131.584 266.52L5.5842 281.343C2.61173 281.693 0 279.37 0 276.377V5.62272Z" fill="url(#paint0_linear)"/>
<path d="M16.7461 64.3893H21.4219V76.9998H24.6136V64.3893H29.2894V61.7271H16.7461V64.3893Z" fill="black"/>
<path d="M34.3897 77.2235C37.8649 77.2235 40.0275 74.8446 40.0275 71.3173C40.0275 67.7675 37.8649 65.3961 34.3897 65.3961C30.9146 65.3961 28.752 67.7675 28.752 71.3173C28.752 74.8446 30.9146 77.2235 34.3897 77.2235ZM34.4047 74.7626C32.8013 74.7626 31.981 73.2935 31.981 71.2949C31.981 69.2963 32.8013 67.8197 34.4047 67.8197C35.9782 67.8197 36.7985 69.2963 36.7985 71.2949C36.7985 73.2935 35.9782 74.7626 34.4047 74.7626Z" fill="black"/>
<path d="M45.8941 77.1862C47.7435 77.1862 48.7055 76.1198 49.1455 75.1653H49.2798V76.9998H52.4119V61.7271H49.2425V67.4692H49.1455C48.7205 66.5371 47.8032 65.3961 45.8867 65.3961C43.3735 65.3961 41.2482 67.3499 41.2482 71.2874C41.2482 75.1205 43.284 77.1862 45.8941 77.1862ZM46.9009 74.6582C45.3423 74.6582 44.4921 73.2711 44.4921 71.2725C44.4921 69.2888 45.3273 67.9241 46.9009 67.9241C48.4445 67.9241 49.3096 69.2292 49.3096 71.2725C49.3096 73.3158 48.4296 74.6582 46.9009 74.6582Z" fill="black"/>
<path d="M57.8702 77.216C59.563 77.216 60.6592 76.4778 61.2185 75.4114H61.308V76.9998H64.3208V69.2739C64.3208 66.5445 62.009 65.3961 59.4586 65.3961C56.7143 65.3961 54.9096 66.7086 54.4696 68.7967L57.4078 69.0353C57.6241 68.2746 58.3027 67.7153 59.4437 67.7153C60.525 67.7153 61.1439 68.2597 61.1439 69.1994V69.2441C61.1439 69.9824 60.3609 70.0793 58.3698 70.2732C56.1028 70.482 54.0669 71.2427 54.0669 73.8006C54.0669 76.0676 55.6851 77.216 57.8702 77.216ZM58.78 75.0236C57.803 75.0236 57.102 74.5687 57.102 73.6962C57.102 72.8013 57.8403 72.3613 58.9589 72.2047C59.6525 72.1077 60.786 71.9437 61.1663 71.6901V72.9057C61.1663 74.1063 60.1745 75.0236 58.78 75.0236Z" fill="black"/>
<path d="M67.9166 81.2729C70.2806 81.2729 71.5409 80.0722 72.1822 78.2377L76.6343 65.5601L73.271 65.5452L70.8772 73.9572H70.7579L68.3864 65.5452H65.0455L69.1545 77.3279L68.9681 77.8126C68.5206 78.8492 67.7525 78.9238 66.6339 78.5733L65.918 80.9522C66.3729 81.1386 67.1112 81.2729 67.9166 81.2729Z" fill="black"/>
<g opacity="0.3">
<path d="M18.6758 89.9122H21.8775V99.0002H23.1104V89.9122H26.3121V88.8184H18.6758V89.9122Z" fill="black"/>
<path d="M31.6894 95.8781C31.6894 97.3099 30.5956 97.9661 29.7206 97.9661C28.7462 97.9661 28.0502 97.2502 28.0502 96.1366V91.3639H26.8769V96.2161C26.8769 98.165 27.911 99.0997 29.3428 99.0997C30.4962 99.0997 31.2519 98.4832 31.6098 97.7076H31.6894V99.0002H32.8627V91.3639H31.6894V95.8781Z" fill="black"/>
<path d="M38.0733 99.1593C39.6245 99.1593 40.758 98.3837 41.116 97.2303L39.9824 96.9122C39.6841 97.7076 38.9931 98.1053 38.0733 98.1053C36.6962 98.1053 35.7466 97.2154 35.6919 95.5798H41.2353V95.0826C41.2353 92.2389 39.5449 91.2644 37.954 91.2644C35.8858 91.2644 34.5137 92.8951 34.5137 95.2417C34.5137 97.5883 35.866 99.1593 38.0733 99.1593ZM35.6919 94.5656C35.7715 93.3774 36.6117 92.3184 37.954 92.3184C39.2267 92.3184 40.0421 93.2729 40.0421 94.5656H35.6919Z" fill="black"/>
<path d="M44.6301 97.6082H43.3573L43.2977 98.165C43.1535 99.5123 42.8701 100.855 42.7409 101.486H43.6358C43.8744 100.81 44.3815 99.2786 44.5505 98.1451L44.6301 97.6082Z" fill="black"/>
<path d="M53.7029 99.1394C55.7363 99.1394 57.1532 97.9512 57.1631 96.2957C57.1532 95.008 56.2931 93.9143 55.1944 93.7104V93.6508C56.1489 93.4022 56.7753 92.4676 56.7853 91.3837C56.7753 89.8326 55.4728 88.6792 53.7029 88.6792C51.9131 88.6792 50.6105 89.8326 50.6205 91.3837C50.6105 92.4676 51.237 93.4022 52.2114 93.6508V93.7104C51.0928 93.9143 50.2327 95.008 50.2426 96.2957C50.2327 97.9512 51.6496 99.1394 53.7029 99.1394ZM53.7029 98.0457C52.3059 98.0457 51.4458 97.3298 51.4557 96.236C51.4458 95.0876 52.3953 94.2673 53.7029 94.2673C54.9905 94.2673 55.9401 95.0876 55.95 96.236C55.9401 97.3298 55.08 98.0457 53.7029 98.0457ZM53.7029 93.2133C52.5892 93.2133 51.8037 92.5173 51.8137 91.4633C51.8037 90.4292 52.5594 89.7531 53.7029 89.7531C54.8265 89.7531 55.5821 90.4292 55.5921 91.4633C55.5821 92.5173 54.7966 93.2133 53.7029 93.2133Z" fill="black"/>
<path d="M71.4959 93.9093C71.4959 90.6877 69.6066 88.6792 67.0015 88.6792C64.3964 88.6792 62.5072 90.6877 62.5072 93.9093C62.5072 97.1309 64.3964 99.1394 67.0015 99.1394C69.6066 99.1394 71.4959 97.1309 71.4959 93.9093ZM70.3027 93.9093C70.3027 96.5542 68.851 97.986 67.0015 97.986C65.1521 97.986 63.7004 96.5542 63.7004 93.9093C63.7004 91.2644 65.1521 89.8326 67.0015 89.8326C68.851 89.8326 70.3027 91.2644 70.3027 93.9093Z" fill="black"/>
<path d="M76.3722 99.1593C78.0625 99.1593 79.1762 98.1252 79.375 96.7729H78.2017C77.983 97.6082 77.287 98.1053 76.3722 98.1053C74.9801 98.1053 74.0853 96.9519 74.0853 95.182C74.0853 93.4519 75 92.3184 76.3722 92.3184C77.4063 92.3184 78.0228 92.9548 78.2017 93.6508H79.375C79.1762 92.219 77.9631 91.2644 76.3523 91.2644C74.2841 91.2644 72.912 92.8951 72.912 95.2218C72.912 97.5087 74.2245 99.1593 76.3722 99.1593Z" fill="black"/>
<path d="M84.2712 91.3639H82.6406V89.5343H81.4673V91.3639H80.3139V92.3582H81.4673V97.1309C81.4673 98.4633 82.5411 99.0997 83.5355 99.0997C83.973 99.0997 84.2514 99.0201 84.4105 98.9604L84.1718 97.9065C84.0724 97.9264 83.9133 97.9661 83.6548 97.9661C83.1377 97.9661 82.6406 97.807 82.6406 96.8127V92.3582H84.2712V91.3639Z" fill="black"/>
</g>
<rect x="18.5337" y="123.534" width="14.9327" height="14.9327" rx="3.46634" fill="black" stroke="black" stroke-width="1.06732"/>
<path d="M22 131L25 134L31 128" stroke="white" stroke-width="1.75"/>
<rect opacity="0.08" x="41" y="124" width="80" height="15" rx="2" fill="black"/>
<rect x="39" y="131" width="84" height="2" fill="black"/>
<rect x="39" y="151" width="84" height="2" fill="black"/>
<rect x="18.5337" y="144.534" width="14.9327" height="14.9327" rx="3.46634" fill="black" stroke="black" stroke-width="1.06732"/>
<path d="M22 152L25 155L31 149" stroke="white" stroke-width="1.75"/>
<rect opacity="0.08" x="41" y="145" width="80" height="15" rx="2" fill="black"/>
<rect x="18.6" y="166.6" width="14.8" height="14.8" rx="3.4" stroke="black" stroke-width="1.2"/>
<rect opacity="0.08" x="41" y="167" width="80" height="15" rx="2" fill="black"/>
</g>
<g opacity="0.7">
<path d="M138 5.62272C138 2.62975 140.612 0.307263 143.584 0.656965L269.584 15.4805C272.102 15.7767 274 17.9108 274 20.4462V261.554C274 264.089 272.102 266.223 269.584 266.52L143.584 281.343C140.612 281.693 138 279.37 138 276.377V5.62272Z" fill="url(#paint1_linear)"/>
<g opacity="0.3">
<path d="M158.295 88.6589C156.227 88.639 154.895 90.1901 154.895 92.0793C154.895 94.0481 156.346 95.46 158.096 95.46C159.15 95.46 160.045 94.943 160.602 94.1077H160.681C160.681 96.6134 159.707 98.0452 158.136 98.0452C157.062 98.0452 156.406 97.3691 156.187 96.4344H154.974C155.213 98.0452 156.426 99.139 158.136 99.139C160.423 99.139 161.835 97.1106 161.835 93.4913C161.835 89.7327 159.966 88.6788 158.295 88.6589ZM158.295 89.7526C159.568 89.7526 160.502 90.8464 160.502 92.0594C160.502 93.2725 159.508 94.3663 158.255 94.3663C157.002 94.3663 156.088 93.3521 156.088 92.0793C156.088 90.7867 157.042 89.7526 158.295 89.7526Z" fill="black"/>
<path d="M176.596 93.362H162.596V94.4558H176.596V93.362Z" fill="black"/>
<path d="M181.089 88.818H179.857L177.311 90.5083V91.7612L179.797 90.1106H179.857V98.9998H181.089V88.818Z" fill="black"/>
<path d="M183.878 98.9998H190.301V97.906H185.568V97.8265L187.855 95.3805C189.605 93.5062 190.122 92.6312 190.122 91.5026C190.122 89.9316 188.849 88.6788 187.06 88.6788C185.275 88.6788 183.918 89.8918 183.918 91.6816H185.091C185.091 90.5232 185.842 89.7526 187.02 89.7526C188.124 89.7526 188.969 90.4288 188.969 91.5026C188.969 92.4423 188.417 93.1383 187.239 94.4259L183.878 98.1049V98.9998Z" fill="black"/>
<path d="M204.782 93.9089C204.782 90.6873 202.893 88.6788 200.287 88.6788C197.682 88.6788 195.793 90.6873 195.793 93.9089C195.793 97.1305 197.682 99.139 200.287 99.139C202.893 99.139 204.782 97.1305 204.782 93.9089ZM203.589 93.9089C203.589 96.5538 202.137 97.9856 200.287 97.9856C198.438 97.9856 196.986 96.5538 196.986 93.9089C196.986 91.264 198.438 89.8322 200.287 89.8322C202.137 89.8322 203.589 91.264 203.589 93.9089Z" fill="black"/>
<path d="M209.658 99.1589C211.348 99.1589 212.462 98.1248 212.661 96.7725H211.488C211.269 97.6077 210.573 98.1049 209.658 98.1049C208.266 98.1049 207.371 96.9515 207.371 95.1816C207.371 93.4515 208.286 92.318 209.658 92.318C210.692 92.318 211.309 92.9543 211.488 93.6504H212.661C212.462 92.2185 211.249 91.264 209.638 91.264C207.57 91.264 206.198 92.8947 206.198 95.2214C206.198 97.5083 207.51 99.1589 209.658 99.1589Z" fill="black"/>
<path d="M217.557 91.3634H215.926V89.5339H214.753V91.3634H213.6V92.3577H214.753V97.1305C214.753 98.4629 215.827 99.0992 216.821 99.0992C217.259 99.0992 217.537 99.0197 217.696 98.96L217.458 97.906C217.358 97.9259 217.199 97.9657 216.941 97.9657C216.424 97.9657 215.926 97.8066 215.926 96.8123V92.3577H217.557V91.3634Z" fill="black"/>
</g>
<path d="M158.765 76.9998H161.912L164.813 67.0143H164.932L167.84 76.9998H170.987L175.357 61.7271H171.83L169.302 72.3613H169.168L166.386 61.7271H163.366L160.577 72.3389H160.45L157.922 61.7271H154.395L158.765 76.9998Z" fill="black"/>
<path d="M180.596 77.2235C183.429 77.2235 185.338 75.8439 185.786 73.7185L182.848 73.5246C182.527 74.3972 181.707 74.8521 180.648 74.8521C179.059 74.8521 178.053 73.8006 178.053 72.0928V72.0854H185.853V71.2128C185.853 67.3201 183.496 65.3961 180.469 65.3961C177.098 65.3961 174.913 67.7899 174.913 71.3247C174.913 74.9565 177.068 77.2235 180.596 77.2235ZM178.053 70.1166C178.12 68.8116 179.112 67.7675 180.521 67.7675C181.901 67.7675 182.855 68.7519 182.863 70.1166H178.053Z" fill="black"/>
<path d="M192.726 77.2235C195.56 77.2235 197.469 75.8439 197.917 73.7185L194.978 73.5246C194.658 74.3972 193.837 74.8521 192.779 74.8521C191.19 74.8521 190.183 73.8006 190.183 72.0928V72.0854H197.984V71.2128C197.984 67.3201 195.627 65.3961 192.6 65.3961C189.229 65.3961 187.044 67.7899 187.044 71.3247C187.044 74.9565 189.199 77.2235 192.726 77.2235ZM190.183 70.1166C190.25 68.8116 191.242 67.7675 192.652 67.7675C194.031 67.7675 194.986 68.7519 194.993 70.1166H190.183Z" fill="black"/>
<path d="M199.637 76.9998H202.814V73.3606L203.671 72.3837L206.796 76.9998H210.517L206.05 70.5044L210.301 65.5452H206.654L202.985 69.8929H202.814V61.7271H199.637V76.9998Z" fill="black"/>
<rect x="156.534" y="123.534" width="14.9327" height="14.9327" rx="3.46634" fill="black" stroke="black" stroke-width="1.06732"/>
<path d="M160 131L163 134L169 128" stroke="white" stroke-width="1.75"/>
<rect opacity="0.08" x="179" y="124" width="80" height="15" rx="2" fill="black"/>
<rect x="156.6" y="144.6" width="14.8" height="14.8" rx="3.4" stroke="black" stroke-width="1.2"/>
<rect opacity="0.08" x="179" y="145" width="80" height="15" rx="2" fill="black"/>
<rect x="156.6" y="166.6" width="14.8" height="14.8" rx="3.4" stroke="black" stroke-width="1.2"/>
<rect opacity="0.08" x="179" y="167" width="80" height="15" rx="2" fill="black"/>
<rect x="156.6" y="189.6" width="14.8" height="14.8" rx="3.4" stroke="black" stroke-width="1.2"/>
<rect opacity="0.08" x="179" y="190" width="80" height="15" rx="2" fill="black"/>
<rect x="178" y="131" width="84" height="2" fill="black"/>
</g>
<g opacity="0.8">
<path d="M276 5.62272C276 2.62975 278.612 0.307263 281.584 0.656965L407.584 15.4805C410.102 15.7767 412 17.9108 412 20.4462V261.554C412 264.089 410.102 266.223 407.584 266.52L281.584 281.343C278.612 281.693 276 279.37 276 276.377V5.62272Z" fill="url(#paint2_linear)"/>
<g opacity="0.3">
<path d="M301.825 93.9093C301.825 90.6877 299.935 88.6792 297.33 88.6792C294.725 88.6792 292.836 90.6877 292.836 93.9093C292.836 97.1309 294.725 99.1394 297.33 99.1394C299.935 99.1394 301.825 97.1309 301.825 93.9093ZM300.631 93.9093C300.631 96.5542 299.18 97.986 297.33 97.986C295.481 97.986 294.029 96.5542 294.029 93.9093C294.029 91.2644 295.481 89.8326 297.33 89.8326C299.18 89.8326 300.631 91.2644 300.631 93.9093Z" fill="black"/>
<path d="M306.701 99.1593C308.391 99.1593 309.505 98.1252 309.704 96.7729H308.53C308.312 97.6082 307.616 98.1053 306.701 98.1053C305.309 98.1053 304.414 96.9519 304.414 95.182C304.414 93.4519 305.329 92.3184 306.701 92.3184C307.735 92.3184 308.351 92.9548 308.53 93.6508H309.704C309.505 92.219 308.292 91.2644 306.681 91.2644C304.613 91.2644 303.241 92.8951 303.241 95.2218C303.241 97.5087 304.553 99.1593 306.701 99.1593Z" fill="black"/>
<path d="M314.6 91.3639H312.969V89.5343H311.796V91.3639H310.643V92.3582H311.796V97.1309C311.796 98.4633 312.87 99.0997 313.864 99.0997C314.302 99.0997 314.58 99.0201 314.739 98.9604L314.501 97.9065C314.401 97.9264 314.242 97.9661 313.983 97.9661C313.466 97.9661 312.969 97.807 312.969 96.8127V92.3582H314.6V91.3639Z" fill="black"/>
<path d="M319.245 99.1593C321.313 99.1593 322.705 97.5883 322.705 95.2218C322.705 92.8354 321.313 91.2644 319.245 91.2644C317.177 91.2644 315.785 92.8354 315.785 95.2218C315.785 97.5883 317.177 99.1593 319.245 99.1593ZM319.245 98.1053C317.674 98.1053 316.958 96.7531 316.958 95.2218C316.958 93.6906 317.674 92.3184 319.245 92.3184C320.816 92.3184 321.532 93.6906 321.532 95.2218C321.532 96.7531 320.816 98.1053 319.245 98.1053Z" fill="black"/>
<path d="M324.515 99.0002H325.649V97.8269H325.788C326.047 98.2445 326.544 99.1593 328.015 99.1593C329.925 99.1593 331.257 97.6281 331.257 95.2019C331.257 92.7957 329.925 91.2644 327.996 91.2644C326.504 91.2644 326.047 92.1792 325.788 92.5769H325.689V88.8184H324.515V99.0002ZM325.669 95.182C325.669 93.4718 326.425 92.3184 327.856 92.3184C329.348 92.3184 330.084 93.5712 330.084 95.182C330.084 96.8127 329.328 98.1053 327.856 98.1053C326.444 98.1053 325.669 96.9122 325.669 95.182Z" fill="black"/>
<path d="M336.113 99.1593C337.665 99.1593 338.798 98.3837 339.156 97.2303L338.022 96.9122C337.724 97.7076 337.033 98.1053 336.113 98.1053C334.736 98.1053 333.787 97.2154 333.732 95.5798H339.275V95.0826C339.275 92.2389 337.585 91.2644 335.994 91.2644C333.926 91.2644 332.554 92.8951 332.554 95.2417C332.554 97.5883 333.906 99.1593 336.113 99.1593ZM333.732 94.5656C333.812 93.3774 334.652 92.3184 335.994 92.3184C337.267 92.3184 338.082 93.2729 338.082 94.5656H333.732Z" fill="black"/>
<path d="M340.92 99.0002H342.093V94.1678C342.093 93.1337 342.909 92.3781 344.022 92.3781C344.336 92.3781 344.659 92.4377 344.738 92.4576V91.2644C344.604 91.2545 344.296 91.2445 344.122 91.2445C343.207 91.2445 342.412 91.7616 342.133 92.5173H342.054V91.3639H340.92V99.0002Z" fill="black"/>
</g>
<path d="M293.328 61.7271V76.9998H296.46V67.0218H296.587L300.539 76.9252H302.672L306.625 67.0591H306.751V76.9998H309.884V61.7271H305.901L301.695 71.9884H301.516L297.31 61.7271H293.328Z" fill="black"/>
<path d="M317.424 77.2235C320.899 77.2235 323.062 74.8446 323.062 71.3173C323.062 67.7675 320.899 65.3961 317.424 65.3961C313.949 65.3961 311.786 67.7675 311.786 71.3173C311.786 74.8446 313.949 77.2235 317.424 77.2235ZM317.439 74.7626C315.836 74.7626 315.016 73.2935 315.016 71.2949C315.016 69.2963 315.836 67.8197 317.439 67.8197C319.013 67.8197 319.833 69.2963 319.833 71.2949C319.833 73.2935 319.013 74.7626 317.439 74.7626Z" fill="black"/>
<path d="M327.885 70.3776C327.892 68.9011 328.772 68.036 330.055 68.036C331.33 68.036 332.098 68.8712 332.091 70.2732V76.9998H335.267V69.7065C335.267 67.0367 333.701 65.3961 331.315 65.3961C329.615 65.3961 328.384 66.2313 327.87 67.5662H327.735V65.5452H324.708V76.9998H327.885V70.3776Z" fill="black"/>
<path d="M343.444 65.5452H341.289V62.8009H338.112V65.5452H336.546V67.9316H338.112V73.8975C338.097 76.1422 339.626 77.2533 341.93 77.1564C342.75 77.1266 343.332 76.9625 343.653 76.8581L343.153 74.4941C342.996 74.5239 342.661 74.5985 342.363 74.5985C341.729 74.5985 341.289 74.3599 341.289 73.4799V67.9316H343.444V65.5452Z" fill="black"/>
<path d="M348.516 70.3776C348.524 68.9011 349.426 68.036 350.724 68.036C352.014 68.036 352.774 68.8638 352.767 70.2732V76.9998H355.944V69.7065C355.951 67.0218 354.37 65.3961 351.984 65.3961C350.246 65.3961 349.083 66.2164 348.561 67.5662H348.427V61.7271H345.339V76.9998H348.516V70.3776Z" fill="black"/>
<rect x="294.534" y="123.534" width="14.9327" height="14.9327" rx="3.46634" fill="black" stroke="black" stroke-width="1.06732"/>
<path d="M298 131L301 134L307 128" stroke="white" stroke-width="1.75"/>
<rect opacity="0.08" x="317" y="124" width="80" height="15" rx="2" fill="black"/>
<rect x="294.534" y="144.534" width="14.9327" height="14.9327" rx="3.46634" fill="black" stroke="black" stroke-width="1.06732"/>
<path d="M298 152L301 155L307 149" stroke="white" stroke-width="1.75"/>
<rect opacity="0.08" x="317" y="145" width="80" height="15" rx="2" fill="black"/>
<rect x="294.6" y="166.6" width="14.8" height="14.8" rx="3.4" stroke="black" stroke-width="1.2"/>
<rect opacity="0.08" x="317" y="167" width="80" height="15" rx="2" fill="black"/>
<rect x="317" y="131" width="84" height="2" fill="black"/>
<rect x="317" y="151" width="84" height="2" fill="black"/>
</g>
<path d="M414 5.62272C414 2.62975 416.612 0.307263 419.584 0.656965L545.584 15.4805C548.102 15.7767 550 17.9108 550 20.4462V261.554C550 264.089 548.102 266.223 545.584 266.52L419.584 281.343C416.612 281.693 414 279.37 414 276.377V5.62272Z" fill="url(#paint3_linear)"/>
<g opacity="0.3">
<path d="M431.055 99.0002H437.478V97.9065H432.745V97.8269L435.032 95.3809C436.782 93.5066 437.299 92.6316 437.299 91.5031C437.299 89.932 436.026 88.6792 434.237 88.6792C432.452 88.6792 431.094 89.8923 431.094 91.682H432.268C432.268 90.5237 433.018 89.7531 434.197 89.7531C435.3 89.7531 436.146 90.4292 436.146 91.5031C436.146 92.4427 435.594 93.1387 434.415 94.4264L431.055 98.1053V99.0002Z" fill="black"/>
<path d="M442.712 99.1394C444.959 99.1394 446.252 97.2353 446.252 93.9093C446.252 90.6082 444.94 88.6792 442.712 88.6792C440.485 88.6792 439.172 90.6082 439.172 93.9093C439.172 97.2353 440.465 99.1394 442.712 99.1394ZM442.712 98.0457C441.231 98.0457 440.366 96.5592 440.366 93.9093C440.366 91.2644 441.241 89.7531 442.712 89.7531C444.184 89.7531 445.059 91.2644 445.059 93.9093C445.059 96.5592 444.194 98.0457 442.712 98.0457Z" fill="black"/>
<path d="M448.001 99.0002H454.425V97.9065H449.692V97.8269L451.979 95.3809C453.729 93.5066 454.246 92.6316 454.246 91.5031C454.246 89.932 452.973 88.6792 451.183 88.6792C449.398 88.6792 448.041 89.8923 448.041 91.682H449.214C449.214 90.5237 449.965 89.7531 451.143 89.7531C452.247 89.7531 453.092 90.4292 453.092 91.5031C453.092 92.4427 452.54 93.1387 451.362 94.4264L448.001 98.1053V99.0002Z" fill="black"/>
<path d="M459.659 99.1394C461.906 99.1394 463.199 97.2353 463.199 93.9093C463.199 90.6082 461.886 88.6792 459.659 88.6792C457.432 88.6792 456.119 90.6082 456.119 93.9093C456.119 97.2353 457.412 99.1394 459.659 99.1394ZM459.659 98.0457C458.177 98.0457 457.312 96.5592 457.312 93.9093C457.312 91.2644 458.187 89.7531 459.659 89.7531C461.13 89.7531 462.005 91.2644 462.005 93.9093C462.005 96.5592 461.14 98.0457 459.659 98.0457Z" fill="black"/>
</g>
<path d="M430.434 61.7271L436.004 71.6006V76.9998H439.211V71.6006L444.782 61.7271H441.165L437.682 68.3045H437.533L434.05 61.7271H430.434Z" fill="black"/>
<path d="M448.907 77.2235C451.741 77.2235 453.65 75.8439 454.097 73.7185L451.159 73.5246C450.838 74.3972 450.018 74.8521 448.959 74.8521C447.371 74.8521 446.364 73.8006 446.364 72.0928V72.0854H454.164V71.2128C454.164 67.3201 451.808 65.3961 448.78 65.3961C445.409 65.3961 443.224 67.7899 443.224 71.3247C443.224 74.9565 445.38 77.2235 448.907 77.2235ZM446.364 70.1166C446.431 68.8116 447.423 67.7675 448.832 67.7675C450.212 67.7675 451.166 68.7519 451.174 70.1166H446.364Z" fill="black"/>
<path d="M459.084 77.216C460.777 77.216 461.873 76.4778 462.432 75.4114H462.522V76.9998H465.534V69.2739C465.534 66.5445 463.223 65.3961 460.672 65.3961C457.928 65.3961 456.123 66.7086 455.683 68.7967L458.621 69.0353C458.838 68.2746 459.516 67.7153 460.657 67.7153C461.739 67.7153 462.358 68.2597 462.358 69.1994V69.2441C462.358 69.9824 461.575 70.0793 459.583 70.2732C457.316 70.482 455.281 71.2427 455.281 73.8006C455.281 76.0676 456.899 77.216 459.084 77.216ZM459.994 75.0236C459.017 75.0236 458.316 74.5687 458.316 73.6962C458.316 72.8013 459.054 72.3613 460.173 72.2047C460.866 72.1077 462 71.9437 462.38 71.6901V72.9057C462.38 74.1063 461.388 75.0236 459.994 75.0236Z" fill="black"/>
<path d="M467.579 76.9998H470.756V70.5193C470.756 69.1099 471.785 68.1404 473.187 68.1404C473.627 68.1404 474.231 68.215 474.529 68.3119V65.493C474.246 65.4259 473.851 65.3812 473.53 65.3812C472.247 65.3812 471.196 66.1269 470.778 67.5438H470.659V65.5452H467.579V76.9998Z" fill="black"/>
<rect x="432.534" y="123.534" width="14.9327" height="14.9327" rx="3.46634" fill="black" stroke="black" stroke-width="1.06732"/>
<path d="M436 131L439 134L445 128" stroke="white" stroke-width="1.75"/>
<rect opacity="0.08" x="455" y="124" width="80" height="15" rx="2" fill="black"/>
<rect x="432.6" y="144.6" width="14.8" height="14.8" rx="3.4" stroke="black" stroke-width="1.2"/>
<rect opacity="0.08" x="455" y="145" width="80" height="15" rx="2" fill="black"/>
<rect x="432.6" y="166.6" width="14.8" height="14.8" rx="3.4" stroke="black" stroke-width="1.2"/>
<rect opacity="0.08" x="455" y="167" width="80" height="15" rx="2" fill="black"/>
<rect x="453" y="131" width="84" height="2" fill="black"/>
<path d="M552 5.62272C552 2.62975 554.612 0.307263 557.584 0.656965L683.584 15.4805C686.102 15.7767 688 17.9108 688 20.4462V261.554C688 264.089 686.102 266.223 683.584 266.52L557.584 281.343C554.612 281.693 552 279.37 552 276.377V5.62272Z" fill="white"/>
<path d="M569.328 77.0002H579.105V74.3379H572.557V61.7275H569.328V77.0002Z" fill="black"/>
<path d="M580.764 77.0002H583.94V65.5457H580.764V77.0002ZM582.359 64.0691C583.306 64.0691 584.082 63.3457 584.082 62.4583C584.082 61.5783 583.306 60.855 582.359 60.855C581.42 60.855 580.644 61.5783 580.644 62.4583C580.644 63.3457 581.42 64.0691 582.359 64.0691Z" fill="black"/>
<path d="M592.329 65.5457H590.055V64.7776C590.055 64.002 590.368 63.5471 591.3 63.5471C591.681 63.5471 592.068 63.6291 592.322 63.7112L592.881 61.3248C592.486 61.2055 591.613 61.0116 590.637 61.0116C588.481 61.0116 586.878 62.2271 586.878 64.7179V65.5457H585.26V67.932H586.878V77.0002H590.055V67.932H592.329V65.5457Z" fill="black"/>
<path d="M598.658 77.2239C601.492 77.2239 603.401 75.8443 603.849 73.719L600.91 73.5251C600.59 74.3976 599.769 74.8525 598.711 74.8525C597.122 74.8525 596.115 73.801 596.115 72.0933V72.0858H603.916V71.2133C603.916 67.3205 601.559 65.3965 598.532 65.3965C595.161 65.3965 592.976 67.7904 592.976 71.3252C592.976 74.9569 595.131 77.2239 598.658 77.2239ZM596.115 70.1171C596.182 68.812 597.174 67.768 598.584 67.768C599.963 67.768 600.918 68.7524 600.925 70.1171H596.115Z" fill="black"/>
<path d="M611.662 65.5457H609.506V62.8014H606.33V65.5457H604.764V67.932H606.33V73.898C606.315 76.1426 607.843 77.2538 610.148 77.1568C610.968 77.127 611.55 76.9629 611.87 76.8585L611.371 74.4945C611.214 74.5244 610.879 74.5989 610.58 74.5989C609.946 74.5989 609.506 74.3603 609.506 73.4803V67.932H611.662V65.5457Z" fill="black"/>
<path d="M613.311 77.0002H616.488V65.5457H613.311V77.0002ZM614.907 64.0691C615.854 64.0691 616.63 63.3457 616.63 62.4583C616.63 61.5783 615.854 60.855 614.907 60.855C613.967 60.855 613.192 61.5783 613.192 62.4583C613.192 63.3457 613.967 64.0691 614.907 64.0691Z" fill="black"/>
<path d="M618.613 77.0002H621.79V70.1245C621.79 68.8568 622.595 68.0141 623.654 68.0141C624.698 68.0141 625.399 68.73 625.399 69.856V77.0002H628.479V70.0052C628.479 68.8195 629.157 68.0141 630.313 68.0141C631.328 68.0141 632.088 68.6479 632.088 69.9232V77.0002H635.258V69.2967C635.258 66.8134 633.781 65.3965 631.648 65.3965C629.97 65.3965 628.665 66.2541 628.195 67.5666H628.076C627.711 66.2392 626.54 65.3965 624.966 65.3965C623.423 65.3965 622.252 66.2168 621.775 67.5666H621.64V65.5457H618.613V77.0002Z" fill="black"/>
<path d="M642.567 77.2239C645.401 77.2239 647.31 75.8443 647.758 73.719L644.819 73.5251C644.499 74.3976 643.678 74.8525 642.619 74.8525C641.031 74.8525 640.024 73.801 640.024 72.0933V72.0858H647.825V71.2133C647.825 67.3205 645.468 65.3965 642.44 65.3965C639.07 65.3965 636.885 67.7904 636.885 71.3252C636.885 74.9569 639.04 77.2239 642.567 77.2239ZM640.024 70.1171C640.091 68.812 641.083 67.768 642.493 67.768C643.872 67.768 644.827 68.7524 644.834 70.1171H640.024Z" fill="black"/>
<rect x="570.534" y="123.534" width="14.9327" height="14.9327" rx="3.46634" fill="black" stroke="black" stroke-width="1.06732"/>
<path d="M574 131L577 134L583 128" stroke="white" stroke-width="1.75"/>
<rect opacity="0.08" x="593" y="124" width="81" height="15" rx="2" fill="black"/>
<rect x="570.6" y="144.6" width="14.8" height="14.8" rx="3.4" stroke="black" stroke-width="1.2"/>
<rect opacity="0.08" x="593" y="145" width="81" height="15" rx="2" fill="black"/>
<rect x="570.6" y="166.6" width="14.8" height="14.8" rx="3.4" stroke="black" stroke-width="1.2"/>
<rect opacity="0.08" x="593" y="167" width="81" height="15" rx="2" fill="black"/>
<rect x="570.6" y="189.6" width="14.8" height="14.8" rx="3.4" stroke="black" stroke-width="1.2"/>
<rect opacity="0.08" x="593" y="190" width="81" height="15" rx="2" fill="black"/>
<rect x="591" y="131" width="84" height="2" fill="black"/>
<defs>
<linearGradient id="paint0_linear" x1="22" y1="169" x2="136" y2="169" gradientUnits="userSpaceOnUse">
<stop offset="0.71875" stop-color="white"/>
<stop offset="1" stop-color="white" stop-opacity="0.68"/>
</linearGradient>
<linearGradient id="paint1_linear" x1="160" y1="169" x2="274" y2="169" gradientUnits="userSpaceOnUse">
<stop offset="0.71875" stop-color="white"/>
<stop offset="1" stop-color="white" stop-opacity="0.68"/>
</linearGradient>
<linearGradient id="paint2_linear" x1="298" y1="169" x2="412" y2="169" gradientUnits="userSpaceOnUse">
<stop offset="0.71875" stop-color="white"/>
<stop offset="1" stop-color="white" stop-opacity="0.68"/>
</linearGradient>
<linearGradient id="paint3_linear" x1="436" y1="169" x2="550" y2="169" gradientUnits="userSpaceOnUse">
<stop offset="0.71875" stop-color="white"/>
<stop offset="1" stop-color="white" stop-opacity="0.68"/>
</linearGradient>
</defs>
</svg>
