<svg width="60" height="60" viewBox="0 0 60 60" fill="none" xmlns="http://www.w3.org/2000/svg">
<path d="M30.0015 14C25.6561 14 25.1108 14.019 23.4041 14.0967C21.7007 14.1747 20.5381 14.4443 19.5207 14.84C18.4684 15.2487 17.5757 15.7953 16.6864 16.685C15.7964 17.5743 15.2497 18.467 14.8397 19.519C14.443 20.5367 14.173 21.6997 14.0963 23.4023C14.02 25.109 14 25.6547 14 30C14 34.3453 14.0193 34.889 14.0967 36.5957C14.175 38.299 14.4447 39.4617 14.84 40.479C15.249 41.5313 15.7957 42.424 16.6854 43.3133C17.5744 44.2033 18.467 44.7513 19.5187 45.16C20.5367 45.5557 21.6997 45.8253 23.4028 45.9033C25.1094 45.981 25.6545 46 29.9995 46C34.3452 46 34.8889 45.981 36.5956 45.9033C38.2989 45.8253 39.4629 45.5557 40.4809 45.16C41.533 44.7513 42.4243 44.2033 43.3133 43.3133C44.2033 42.424 44.75 41.5313 45.16 40.4793C45.5533 39.4617 45.8233 38.2987 45.9033 36.596C45.98 34.8893 46 34.3453 46 30C46 25.6547 45.98 25.1093 45.9033 23.4027C45.8233 21.6993 45.5533 20.5367 45.16 19.5193C44.75 18.467 44.2033 17.5743 43.3133 16.685C42.4233 15.795 41.5333 15.2483 40.4799 14.84C39.4599 14.4443 38.2966 14.1747 36.5932 14.0967C34.8866 14.019 34.3432 14 29.9965 14H30.0015ZM28.5662 16.8833C28.9922 16.8827 29.4675 16.8833 30.0015 16.8833C34.2735 16.8833 34.7799 16.8987 36.4669 16.9753C38.0269 17.0467 38.8736 17.3073 39.4376 17.5263C40.1843 17.8163 40.7166 18.163 41.2763 18.723C41.8363 19.283 42.183 19.8163 42.4736 20.563C42.6926 21.1263 42.9536 21.973 43.0246 23.533C43.1013 25.2197 43.118 25.7263 43.118 29.9963C43.118 34.2663 43.1013 34.773 43.0246 36.4597C42.9533 38.0197 42.6926 38.8663 42.4736 39.4297C42.1836 40.1763 41.8363 40.708 41.2763 41.2677C40.7163 41.8277 40.1846 42.1743 39.4376 42.4643C38.8743 42.6843 38.0269 42.9443 36.4669 43.0157C34.7802 43.0923 34.2735 43.109 30.0015 43.109C25.7291 43.109 25.2228 43.0923 23.5361 43.0157C21.9761 42.9437 21.1294 42.683 20.5651 42.464C19.8184 42.174 19.2851 41.8273 18.725 41.2673C18.165 40.7073 17.8184 40.1753 17.5277 39.4283C17.3087 38.865 17.0477 38.0183 16.9767 36.4583C16.9 34.7717 16.8847 34.265 16.8847 29.9923C16.8847 25.7197 16.9 25.2157 16.9767 23.529C17.048 21.969 17.3087 21.1223 17.5277 20.5583C17.8177 19.8117 18.165 19.2783 18.725 18.7183C19.2851 18.1583 19.8184 17.8117 20.5651 17.521C21.1291 17.301 21.9761 17.041 23.5361 16.9693C25.0121 16.9027 25.5841 16.8827 28.5662 16.8793V16.8833ZM38.5423 19.54C37.4822 19.54 36.6222 20.399 36.6222 21.4593C36.6222 22.5193 37.4822 23.3793 38.5423 23.3793C39.6023 23.3793 40.4623 22.5193 40.4623 21.4593C40.4623 20.3993 39.6023 19.5393 38.5423 19.5393V19.54ZM30.0015 21.7833C25.4638 21.7833 21.7847 25.4623 21.7847 30C21.7847 34.5377 25.4638 38.215 30.0015 38.215C34.5392 38.215 38.2169 34.5377 38.2169 30C38.2169 25.4623 34.5389 21.7833 30.0012 21.7833H30.0015ZM30.0015 24.6667C32.9469 24.6667 35.3349 27.0543 35.3349 30C35.3349 32.9453 32.9469 35.3333 30.0015 35.3333C27.0558 35.3333 24.6681 32.9453 24.6681 30C24.6681 27.0543 27.0558 24.6667 30.0015 24.6667V24.6667Z" fill="black"/>
</svg>
